<svg width="101" height="101" viewBox="0 0 101 101" fill="none" xmlns="http://www.w3.org/2000/svg">
<g id="Crown">
<g id="Group">
<path id="Vector" d="M15.4923 85.4799C-3.99743 65.9901 -3.99743 34.2814 15.4923 14.7917C34.982 -4.69805 66.6907 -4.69805 86.1804 14.7917C105.67 34.2814 105.67 65.9901 86.1804 85.4799C66.6907 104.97 34.982 104.97 15.4923 85.4799ZM83.8248 17.1473C65.6338 -1.04373 36.039 -1.04373 17.8527 17.1473C-0.338378 35.3384 -0.338378 64.9332 17.8527 83.1195C36.0437 101.311 65.6385 101.311 83.8248 83.1195C102.016 64.9284 102.016 35.3336 83.8248 17.1473Z" fill="white"/>
<g id="Group_2">
<path id="Vector_2" d="M84.364 39.5331C84.1887 39.3578 84.0465 39.135 83.9659 38.8885C82.2359 33.7696 79.411 29.2337 75.5718 25.3946C71.7374 21.5601 67.1968 18.7353 62.0779 17.0005C61.4001 16.7683 60.9451 16.1379 60.9451 15.4222V3.2743C60.9451 2.76241 61.182 2.27895 61.5849 1.96139C61.9925 1.64383 62.5186 1.53482 63.0116 1.65805C71.7611 3.8478 79.7712 8.38845 86.1698 14.7918C92.5685 21.1952 97.1091 29.2006 99.2989 37.9501C99.4221 38.4478 99.3084 38.9739 98.9955 39.3815C98.678 39.7891 98.1945 40.0213 97.6826 40.0213H85.5347C85.0797 40.0213 84.6626 39.8365 84.3545 39.5284L84.364 39.5331ZM77.9275 23.0389C81.8425 26.9539 84.7953 31.542 86.7197 36.6893H95.5071C93.2984 29.3333 89.2839 22.6123 83.819 17.1474C78.3541 11.6826 71.6332 7.66802 64.2818 5.46405V14.2515C69.4292 16.1711 74.0172 19.1239 77.9322 23.0437L77.9275 23.0389Z" fill="white"/>
<path id="Vector_3" d="M15.4909 85.4799C9.09225 79.0813 4.54685 71.0712 2.3571 62.3216C2.23386 61.824 2.34762 61.2979 2.66045 60.895C2.97801 60.4874 3.46144 60.2551 3.97333 60.2551H16.1212C16.8369 60.2551 17.4721 60.7101 17.6996 61.3879C19.4296 66.5068 22.2544 71.0427 26.0936 74.8819C29.928 78.7163 34.4687 81.5412 39.5876 83.2759C40.2654 83.5034 40.7204 84.1386 40.7204 84.8543V97.0022C40.7204 97.514 40.4834 97.9975 40.0805 98.3151C39.6729 98.6326 39.1468 98.7416 38.6491 98.6184C29.8996 96.4286 21.8942 91.888 15.4909 85.4894V85.4799ZM6.15836 63.5824C8.36707 70.9384 12.3816 77.6593 17.8465 83.1242C23.3114 88.5891 30.0323 92.6037 37.3884 94.8124V86.025C32.241 84.1054 27.653 81.1525 23.738 77.2375C19.823 73.3225 16.8701 68.7345 14.9458 63.5871H6.15836V63.5824Z" fill="white"/>
<path id="Vector_4" d="M61.4411 98.1729C61.1283 97.8601 60.9529 97.4383 60.9529 96.9927V84.8448C60.9529 84.1291 61.4079 83.494 62.0857 83.2665C67.2046 81.5365 71.7405 78.7116 75.5796 74.8725C79.4188 71.0333 82.2389 66.4974 83.9737 61.3785C84.2012 60.7007 84.8363 60.2457 85.552 60.2457H97.6999C98.2118 60.2457 98.6953 60.4827 99.0128 60.8856C99.3304 61.2884 99.4394 61.8193 99.3162 62.3122C97.1217 71.0617 92.581 79.0671 86.1824 85.4705C79.7838 91.8738 71.7737 96.4145 63.0241 98.6042C62.5265 98.7275 62.0004 98.6137 61.5975 98.3009C61.5453 98.2535 61.4932 98.2108 61.4458 98.1635L61.4411 98.1729ZM64.2849 86.0203V94.8077C71.641 92.599 78.3619 88.5845 83.8268 83.1196C89.2917 77.6547 93.3015 70.9338 95.5149 63.5777H86.7275C84.8079 68.725 81.855 73.3083 77.9353 77.2281C74.0203 81.1431 69.4323 84.1007 64.2849 86.0203Z" fill="white"/>
<path id="Vector_5" d="M2.79389 39.5332C2.74649 39.4858 2.69911 39.4337 2.66119 39.3815C2.34363 38.9787 2.23461 38.4478 2.35784 37.9501C4.54759 29.2006 9.08825 21.1905 15.4916 14.7919C21.895 8.39325 29.9003 3.84787 38.6498 1.65812C39.1475 1.53488 39.6736 1.64863 40.0765 1.96145C40.4794 2.27901 40.7164 2.76247 40.7164 3.27436V15.4223C40.7164 16.138 40.2614 16.7731 39.5836 17.0006C34.4647 18.7306 29.9288 21.5554 26.0896 25.3946C22.2552 29.2291 19.4303 33.7697 17.6956 38.8886C17.4681 39.5664 16.833 40.0214 16.1173 40.0214H3.96936C3.52382 40.0214 3.09723 39.846 2.78914 39.538L2.79389 39.5332ZM37.3844 5.46411C30.0283 7.67282 23.3074 11.6874 17.8425 17.1523C12.3776 22.6172 8.36781 29.3381 6.15436 36.6941H14.9418C16.8614 31.5468 19.8142 26.9635 23.734 23.0437C27.649 19.1287 32.237 16.1759 37.3844 14.2516V5.46411Z" fill="white"/>
</g>
<path id="Vector_6" d="M77.9316 23.0388C62.9921 8.09922 38.6773 8.09448 23.7377 23.0388C8.79339 37.9831 8.79813 62.2932 23.7377 77.2327C38.6773 92.1723 62.9873 92.1771 77.9316 77.2327C92.876 62.2884 92.8712 37.9784 77.9316 23.0388Z" fill="white"/>
<g id="Group_3">
<path id="Vector_7" d="M64.6544 63.8133L37.1268 63.9959C35.9672 64.0036 35.0333 64.9499 35.041 66.1095L35.0475 67.0906C35.0552 68.2502 36.0015 69.184 37.1611 69.1763L64.6888 68.9937C65.8484 68.986 66.7822 68.0398 66.7745 66.8802L66.768 65.8991C66.7603 64.7395 65.814 63.8057 64.6544 63.8133Z" fill="#110A1D"/>
<path id="Vector_8" d="M40.8773 47.1971C40.5787 47.1971 40.2754 47.1308 40.0005 46.9981L37.8534 45.9601C36.9197 45.5051 36.4931 44.4007 36.8817 43.4386L37.8676 40.9834C38.171 40.2345 38.8867 39.7463 39.6924 39.7416C40.0384 39.7416 40.3797 39.8269 40.683 40.0023L43.2425 41.4621C43.7212 41.7323 44.0672 42.2015 44.1904 42.7418C44.3136 43.2821 44.2046 43.8509 43.8918 44.3059L42.4889 46.3393C42.1239 46.8701 41.5172 47.1924 40.8726 47.1924L40.8773 47.1971Z" fill="#110A1D"/>
<path id="Vector_9" d="M60.6922 47.0645C60.0476 47.0645 59.4362 46.7564 59.0665 46.2303L57.6777 44.2728C57.3554 43.8225 57.2417 43.2538 57.3555 42.7134C57.4692 42.1731 57.8105 41.6991 58.2892 41.4195L60.9292 39.8696C61.2278 39.6942 61.5691 39.5994 61.9151 39.5947C62.7208 39.59 63.446 40.0687 63.7588 40.8128L64.7542 43.1969C65.1523 44.1543 64.7399 45.2681 63.8157 45.7326L61.5691 46.8559C61.2989 46.9887 60.9955 47.0645 60.6969 47.0645H60.6922Z" fill="#110A1D"/>
<path id="Vector_10" d="M38.7148 62.1557C37.5061 62.1651 36.4208 61.4068 36.0084 60.2693L31.4156 47.6284C31.1218 47.7706 30.8089 47.8796 30.4914 47.9602C30.1169 48.055 29.7377 48.1024 29.3538 48.1024C29.1311 48.1024 28.913 48.0929 28.6997 48.0645C26.3062 47.7611 24.4909 45.7088 24.4767 43.2916C24.4577 40.6184 26.619 38.4286 29.2922 38.4097C31.9654 38.3907 34.1552 40.552 34.1694 43.2252C34.1694 43.8414 34.0651 44.4339 33.8471 44.9884C33.7286 45.2918 33.5817 45.5809 33.411 45.8558L42.1463 50.0836L48.8294 40.4004C48.5497 40.2819 48.2795 40.1349 48.0236 39.9596C47.5401 39.6325 47.1183 39.2249 46.777 38.7462C46.1988 37.931 45.886 36.9688 45.8812 35.9735C45.8623 33.3003 48.0236 31.1105 50.6968 31.0916C50.8153 31.0916 50.9385 31.0915 51.057 31.101C53.4506 31.2622 55.3844 33.1818 55.5597 35.5753C55.6403 36.7081 55.3417 37.7935 54.6971 38.7178C54.3559 39.2012 53.9387 39.6136 53.46 39.9406C53.2088 40.116 52.9387 40.2629 52.659 40.3814L59.4605 49.9651L68.0536 45.6662C67.8925 45.3581 67.7645 45.0358 67.6697 44.6993C67.556 44.2917 67.4944 43.8651 67.4944 43.4338C67.4944 43.2394 67.5038 43.0451 67.5228 42.8555C67.7977 40.4193 69.8547 38.5708 72.3051 38.5566C74.9783 38.5377 77.1681 40.699 77.1823 43.3722C77.2013 45.9221 75.2201 48.0645 72.6749 48.2398L72.3715 48.2493C71.8786 48.2493 71.3952 48.183 70.9259 48.0408C70.6226 47.946 70.3287 47.8275 70.0538 47.6758L65.7406 60.0702C65.3473 61.2125 64.2666 61.9803 63.0579 61.9898L38.7148 62.1509V62.1557Z" fill="#110A1D"/>
</g>
</g>
</g>
</svg>
