<svg width="100" height="217" viewBox="0 0 100 217" fill="none" xmlns="http://www.w3.org/2000/svg">
<path d="M14.6173 201.595C-4.87243 182.106 -4.87243 150.397 14.6173 130.907C34.107 111.417 65.8157 111.417 85.3054 130.907C104.795 150.397 104.795 182.106 85.3054 201.595C65.8157 221.085 34.107 221.085 14.6173 201.595ZM82.9498 133.263C64.7588 115.072 35.164 115.072 16.9777 133.263C-1.21338 151.454 -1.21338 181.049 16.9777 199.235C35.1687 217.426 64.7635 217.426 82.9498 199.235C101.141 181.044 101.141 151.449 82.9498 133.263Z" fill="white"/>
<path d="M83.493 155.649C83.3177 155.473 83.1755 155.25 83.0949 155.004C81.3649 149.885 78.54 145.349 74.7008 141.51C70.8664 137.676 66.3258 134.851 61.2069 133.116C60.5291 132.884 60.0741 132.253 60.0741 131.538V119.39C60.0741 118.878 60.311 118.394 60.7139 118.077C61.1215 117.759 61.6476 117.65 62.1406 117.773C70.8901 119.963 78.9002 124.504 85.2988 130.907C91.6975 137.311 96.2381 145.316 98.4279 154.066C98.5511 154.563 98.4374 155.089 98.1245 155.497C97.807 155.905 97.3235 156.137 96.8116 156.137H84.6637C84.2087 156.137 83.7916 155.952 83.4835 155.644L83.493 155.649ZM77.0565 139.154C80.9715 143.069 83.9243 147.657 85.8487 152.805H94.6361C92.4274 145.449 88.4129 138.728 82.948 133.263C77.4831 127.798 70.7622 123.783 63.4108 121.579V130.367C68.5582 132.287 73.1462 135.239 77.0612 139.159L77.0565 139.154Z" fill="white"/>
<path d="M14.616 201.595C8.21734 195.197 3.67194 187.187 1.48219 178.437C1.35896 177.939 1.47272 177.413 1.78554 177.01C2.1031 176.603 2.58653 176.371 3.09842 176.371H15.2463C15.962 176.371 16.5971 176.826 16.8247 177.503C18.5547 182.622 21.3795 187.158 25.2187 190.997C29.0531 194.832 33.5938 197.657 38.7127 199.391C39.3905 199.619 39.8454 200.254 39.8454 200.97V213.118C39.8454 213.629 39.6085 214.113 39.2056 214.43C38.798 214.748 38.2719 214.857 37.7742 214.734C29.0247 212.544 21.0193 208.003 14.616 201.605V201.595ZM5.28345 179.698C7.49216 187.054 11.5067 193.775 16.9716 199.24C22.4365 204.705 29.1574 208.719 36.5135 210.928V202.14C31.3661 200.221 26.7781 197.268 22.8631 193.353C18.948 189.438 15.9952 184.85 14.0709 179.703H5.28345V179.698Z" fill="white"/>
<path d="M60.5623 214.288C60.2494 213.976 60.0741 213.554 60.0741 213.108V200.96C60.0741 200.245 60.5291 199.609 61.2069 199.382C66.3258 197.652 70.8617 194.827 74.7008 190.988C78.54 187.149 81.3601 182.613 83.0949 177.494C83.3224 176.816 83.9575 176.361 84.6732 176.361H96.8211C97.333 176.361 97.8165 176.598 98.134 177.001C98.4516 177.404 98.5606 177.935 98.4374 178.428C96.2429 187.177 91.7022 195.183 85.3036 201.586C78.905 207.989 70.8948 212.53 62.1453 214.72C61.6477 214.843 61.1215 214.729 60.7187 214.416C60.6665 214.369 60.6144 214.326 60.567 214.279L60.5623 214.288ZM63.4061 202.136V210.923C70.7621 208.714 77.4831 204.7 82.948 199.235C88.4128 193.77 92.4227 187.049 94.6361 179.693H85.8487C83.9291 184.84 80.9762 189.424 77.0565 193.344C73.1414 197.259 68.5534 200.216 63.4061 202.136Z" fill="white"/>
<path d="M1.91898 155.649C1.87158 155.601 1.8242 155.549 1.78628 155.497C1.46872 155.094 1.3597 154.563 1.48293 154.066C3.67268 145.316 8.21334 137.306 14.6167 130.907C21.0201 124.509 29.0254 119.963 37.7749 117.774C38.2726 117.65 38.7987 117.764 39.2016 118.077C39.6045 118.394 39.8415 118.878 39.8415 119.39V131.538C39.8415 132.253 39.3865 132.889 38.7087 133.116C33.5898 134.846 29.0539 137.671 25.2147 141.51C21.3802 145.344 18.5554 149.885 16.8207 155.004C16.5931 155.682 15.958 156.137 15.2424 156.137H3.09445C2.64892 156.137 2.22232 155.961 1.91423 155.653L1.91898 155.649ZM36.5095 121.58C29.1534 123.788 22.4325 127.803 16.9676 133.268C11.5027 138.733 7.4929 145.454 5.27945 152.81H14.0669C15.9865 147.662 18.9393 143.079 22.8591 139.159C26.7741 135.244 31.3621 132.291 36.5095 130.367V121.58Z" fill="white"/>
<path d="M77.0605 139.154C62.121 124.215 37.8062 124.21 22.8666 139.154C7.9223 154.099 7.92704 178.409 22.8666 193.348C37.8062 208.288 62.1162 208.293 77.0605 193.348C92.0049 178.404 92.0001 154.094 77.0605 139.154Z" fill="white"/>
<path d="M63.7795 179.929L36.2519 180.111C35.0923 180.119 34.1584 181.065 34.1661 182.225L34.1726 183.206C34.1803 184.366 35.1266 185.299 36.2862 185.292L63.8139 185.109C64.9735 185.101 65.9073 184.155 65.8996 182.996L65.8931 182.014C65.8854 180.855 64.9391 179.921 63.7795 179.929Z" fill="#110A1D"/>
<path d="M40.0023 163.313C39.7037 163.313 39.4004 163.246 39.1255 163.113L36.9784 162.075C36.0447 161.62 35.6181 160.516 36.0067 159.554L36.9926 157.099C37.296 156.35 38.0117 155.862 38.8174 155.857C39.1634 155.857 39.5047 155.942 39.808 156.118L42.3675 157.577C42.8462 157.848 43.1922 158.317 43.3154 158.857C43.4386 159.398 43.3296 159.966 43.0168 160.421L41.6139 162.455C41.2489 162.985 40.6422 163.308 39.9976 163.308L40.0023 163.313Z" fill="#110A1D"/>
<path d="M59.8211 163.18C59.1765 163.18 58.5651 162.872 58.1954 162.346L56.8066 160.388C56.4843 159.938 56.3706 159.369 56.4844 158.829C56.5981 158.288 56.9394 157.814 57.4181 157.535L60.0581 155.985C60.3567 155.81 60.698 155.715 61.044 155.71C61.8497 155.705 62.5749 156.184 62.8877 156.928L63.8831 159.312C64.2812 160.27 63.8689 161.384 62.9446 161.848L60.698 162.971C60.4278 163.104 60.1244 163.18 59.8258 163.18H59.8211Z" fill="#110A1D"/>
<path d="M37.8398 178.271C36.6311 178.28 35.5458 177.522 35.1334 176.385L30.5406 163.744C30.2468 163.886 29.9339 163.995 29.6164 164.076C29.2419 164.17 28.8627 164.218 28.4788 164.218C28.2561 164.218 28.038 164.208 27.8247 164.18C25.4312 163.876 23.6159 161.824 23.6017 159.407C23.5827 156.734 25.744 154.544 28.4172 154.525C31.0904 154.506 33.2802 156.667 33.2944 159.341C33.2944 159.957 33.1901 160.549 32.9721 161.104C32.8536 161.407 32.7067 161.696 32.536 161.971L41.2713 166.199L47.9544 156.516C47.6747 156.397 47.4045 156.25 47.1486 156.075C46.6651 155.748 46.2433 155.34 45.902 154.862C45.3238 154.046 45.011 153.084 45.0062 152.089C44.9873 149.416 47.1486 147.226 49.8218 147.207C49.9403 147.207 50.0635 147.207 50.182 147.216C52.5756 147.378 54.5094 149.297 54.6847 151.691C54.7653 152.823 54.4667 153.909 53.8221 154.833C53.4809 155.317 53.0637 155.729 52.585 156.056C52.3338 156.231 52.0637 156.378 51.784 156.497L58.5855 166.08L67.1786 161.782C67.0175 161.473 66.8895 161.151 66.7947 160.815C66.681 160.407 66.6194 159.98 66.6194 159.549C66.6194 159.355 66.6288 159.16 66.6478 158.971C66.9227 156.535 68.9797 154.686 71.4301 154.672C74.1033 154.653 76.2931 156.814 76.3073 159.488C76.3263 162.037 74.3451 164.18 71.7999 164.355L71.4965 164.365C71.0036 164.365 70.5202 164.298 70.0509 164.156C69.7476 164.061 69.4537 163.943 69.1788 163.791L64.8656 176.186C64.4723 177.328 63.3916 178.096 62.1829 178.105L37.8398 178.266V178.271Z" fill="#110A1D"/>
<path d="M99.2195 49.5555C99.2195 50.5443 98.418 51.3354 97.4396 51.3354C96.4611 51.3354 95.6597 50.5339 95.6597 49.5555C95.6597 24.2 75.0298 3.57014 49.6743 3.57014C24.3189 3.57013 3.68898 24.2 3.68898 49.5555C3.68898 50.5443 2.88749 51.3354 1.90908 51.3354C0.930665 51.3354 0.129241 50.5339 0.129241 49.5555C0.129244 22.2328 22.3621 -2.05481e-05 49.6847 -1.81594e-05C77.0074 -1.57708e-05 99.2402 22.2328 99.2402 49.5555L99.2195 49.5555Z" fill="white"/>
<path d="M99.5404 45.3755V164.971C99.5404 165.96 98.7389 166.751 97.7605 166.751C96.7821 166.751 95.9807 165.949 95.9807 164.971V45.3755C95.9807 44.3867 96.7821 43.5956 97.7605 43.5956C98.7389 43.5956 99.5404 44.3971 99.5404 45.3755Z" fill="white"/>
<path d="M3.99745 45.1153V164.711C3.99745 165.699 3.19602 166.49 2.21761 166.49C1.2392 166.49 0.437714 165.689 0.437714 164.711V45.1153C0.437714 44.1265 1.2392 43.3354 2.21761 43.3354C3.19602 43.3354 3.99745 44.1369 3.99745 45.1153Z" fill="white"/>
</svg>
