<svg width="100" height="100" viewBox="0 0 100 100" fill="none" xmlns="http://www.w3.org/2000/svg">
<g id="M">
<path id="Vector" d="M50.3967 99.8408C23.074 99.8408 0.851562 77.608 0.851562 50.2957C0.851562 22.9834 23.0844 0.75061 50.3967 0.75061C77.709 0.75061 99.9418 22.9834 99.9418 50.2957C99.9418 77.608 77.709 99.8408 50.3967 99.8408ZM50.3967 4.05013C24.8955 4.05013 4.15108 24.7945 4.15108 50.2957C4.15108 75.7969 24.8955 96.5413 50.3967 96.5413C75.8979 96.5413 96.6423 75.7969 96.6423 50.2957C96.6423 24.7945 75.8979 4.05013 50.3967 4.05013Z" fill="#478BF9"/>
<g id="Group">
<path id="Vector_2" d="M82.7174 14.9492L67.3792 30.2875L70.3968 33.3051L85.7351 17.9668L82.7174 14.9492Z" fill="#478BF9"/>
<path id="Vector_3" d="M29.9242 67.7408L14.5859 83.079L17.6035 86.0966L32.9418 70.7583L29.9242 67.7408Z" fill="#478BF9"/>
<path id="Vector_4" d="M70.8616 67.7557L67.844 70.7734L83.1822 86.1116L86.1999 83.094L70.8616 67.7557Z" fill="#478BF9"/>
<path id="Vector_5" d="M17.5999 14.4873L14.5823 17.5049L29.9132 32.8358L32.9308 29.8182L17.5999 14.4873Z" fill="#478BF9"/>
</g>
<g id="Group_2">
<path id="Vector_6" d="M62.4808 51.628C63.48 50.6288 63.48 49.0154 62.4808 48.0266L60.3574 45.9137C59.3582 44.9145 57.7449 44.9145 56.7561 45.9137L55.6111 47.0586L54.2892 45.7367C53.29 44.7375 51.6766 44.7375 50.6878 45.7367L49.5429 46.8921L48.221 45.5598C47.2217 44.5606 45.6084 44.5606 44.6195 45.5598L37.5937 52.5856C37.5417 52.6377 37.5417 52.7209 37.5937 52.7834C38.5305 53.7202 40.0606 53.7202 41.0078 52.7834L45.5355 48.2557C46.0247 47.7664 46.8158 47.7664 47.305 48.2557L47.6381 48.5887C47.7005 48.6511 47.7005 48.7448 47.6381 48.8073L43.8597 52.5856C43.8077 52.6377 43.8077 52.7209 43.8597 52.7834C44.7965 53.7202 46.3266 53.7202 47.2738 52.7834L51.6142 48.443C52.1034 47.9538 52.8945 47.9538 53.3837 48.443L53.7167 48.7761C53.7688 48.8281 53.7688 48.9114 53.7167 48.9738L50.0737 52.6169C50.0217 52.6689 50.0217 52.7522 50.0737 52.8146C51.0105 53.7514 52.5405 53.7514 53.4877 52.8146L57.6824 48.6199C58.1716 48.1307 58.9626 48.1307 59.4519 48.6199L60.1701 49.3381C60.4511 49.6192 60.4511 50.0875 60.1701 50.3686L60.0556 50.483C59.7745 50.7641 59.3062 50.7641 59.0251 50.483L58.0987 49.5567C58.0467 49.5047 57.9634 49.5047 57.901 49.5567L56.2981 51.1596C56.246 51.2117 56.246 51.295 56.2981 51.3574L57.7449 52.8042C58.7441 53.8034 60.3574 53.8034 61.3462 52.8042L62.4912 51.6592L62.4808 51.628Z" fill="#478BF9"/>
<path id="Vector_7" d="M50.3978 12.3041C29.414 12.3041 12.4062 29.3118 12.4062 50.2957C12.4062 71.2795 29.414 88.2872 50.3978 88.2872C71.3816 88.2872 88.3893 71.2795 88.3893 50.2957C88.3893 29.3118 71.3816 12.3041 50.3978 12.3041ZM51.9486 24.0347C58.0481 24.3886 63.5855 26.8242 67.8738 30.6337L62.3885 36.1191C59.5261 33.6939 55.9143 32.1222 51.9486 31.7891V24.0347ZM48.8572 24.0347V31.7891C44.8916 32.1118 41.2798 33.6939 38.4174 36.1191L32.932 30.6337C37.2204 26.8242 42.7578 24.3886 48.8572 24.0347ZM30.7463 32.8196L36.2316 38.305C33.8064 41.1673 32.2347 44.7791 31.9016 48.7448H24.1472C24.5011 42.6453 26.9367 37.1079 30.7463 32.8196ZM24.1472 51.8362H31.9016C32.2243 55.8019 33.8064 59.4136 36.2316 62.276L30.7463 67.7614C26.9367 63.473 24.5011 57.9356 24.1472 51.8362ZM48.8572 76.5463C42.7578 76.1924 37.2204 73.7567 32.932 69.9472L38.4174 64.4618C41.2798 66.887 44.8916 68.4587 48.8572 68.7918V76.5463ZM34.4309 50.2852C34.4309 41.4691 41.5817 34.3184 50.3978 34.3184C59.2139 34.3184 66.3646 41.4691 66.3646 50.2852C66.3646 59.1014 59.2139 66.2521 50.3978 66.2521C41.5817 66.2521 34.4309 59.1014 34.4309 50.2852ZM51.9486 76.5463V68.7918C55.9143 68.4692 59.5261 66.887 62.3885 64.4618L67.8738 69.9472C63.5855 73.7567 58.0481 76.1924 51.9486 76.5463ZM70.0596 67.7614L64.5743 62.276C66.9995 59.4136 68.5712 55.8019 68.9043 51.8362H76.6587C76.3048 57.9356 73.8692 63.473 70.0596 67.7614ZM68.9043 48.7448C68.5816 44.7791 66.9995 41.1673 64.5743 38.305L70.0596 32.8196C73.8692 37.1079 76.3048 42.6453 76.6587 48.7448H68.9043Z" fill="#478BF9"/>
</g>
</g>
</svg>
