<svg width="100" height="84" viewBox="0 0 100 84" fill="none" xmlns="http://www.w3.org/2000/svg">
<g id="Crown">
<path id="Vector" d="M14.6173 85.6719C-4.87243 66.1822 -4.87243 34.4735 14.6173 14.9837C34.107 -4.50598 65.8157 -4.50598 85.3054 14.9837C104.795 34.4735 104.795 66.1822 85.3054 85.6719C65.8157 105.162 34.107 105.162 14.6173 85.6719ZM82.9498 17.3394C64.7588 -0.851653 35.164 -0.851653 16.9777 17.3394C-1.21338 35.5304 -1.21338 65.1253 16.9777 83.3116C35.1687 101.503 64.7635 101.503 82.9498 83.3116C101.141 65.1205 101.141 35.5257 82.9498 17.3394Z" fill="white"/>
<g id="Group">
<path id="Vector_2" d="M83.4893 39.7252C83.3139 39.5498 83.1717 39.327 83.0912 39.0806C81.3612 33.9617 78.5363 29.4258 74.6971 25.5866C70.8626 21.7522 66.322 18.9273 61.2031 17.1926C60.5253 16.9603 60.0703 16.3299 60.0703 15.6142V3.46634C60.0703 2.95445 60.3073 2.47099 60.7102 2.15343C61.1178 1.83587 61.6439 1.72686 62.1368 1.85009C70.8863 4.03984 78.8965 8.58049 85.2951 14.9838C91.6937 21.3872 96.2344 29.3926 98.4241 38.1421C98.5474 38.6398 98.4336 39.1659 98.1208 39.5735C97.8032 39.9811 97.3198 40.2134 96.8079 40.2134H84.66C84.205 40.2134 83.7879 40.0285 83.4798 39.7204L83.4893 39.7252ZM77.0527 23.231C80.9677 27.146 83.9206 31.734 85.8449 36.8814H94.6324C92.4237 29.5253 88.4091 22.8044 82.9442 17.3395C77.4793 11.8746 70.7584 7.86006 63.4071 5.65609V14.4435C68.5544 16.3631 73.1424 19.316 77.0574 23.2357L77.0527 23.231Z" fill="white"/>
<path id="Vector_3" d="M14.6161 85.6719C8.21749 79.2733 3.67209 71.2631 1.48234 62.5136C1.35911 62.016 1.47287 61.4898 1.78569 61.087C2.10325 60.6793 2.58668 60.4471 3.09857 60.4471H15.2465C15.9622 60.4471 16.5973 60.9021 16.8248 61.5799C18.5548 66.6988 21.3797 71.2347 25.2188 75.0739C29.0533 78.9083 33.594 81.7332 38.7129 83.4679C39.3906 83.6954 39.8456 84.3305 39.8456 85.0462V97.1941C39.8456 97.706 39.6086 98.1895 39.2057 98.507C38.7981 98.8246 38.272 98.9336 37.7743 98.8104C29.0248 96.6206 21.0195 92.08 14.6161 85.6814V85.6719ZM5.28361 63.7744C7.49231 71.1304 11.5068 77.8513 16.9717 83.3162C22.4366 88.7811 29.1576 92.7957 36.5136 95.0044V86.2169C31.3663 84.2973 26.7782 81.3445 22.8632 77.4295C18.9482 73.5145 15.9954 68.9265 14.071 63.7791H5.28361V63.7744Z" fill="white"/>
<path id="Vector_4" d="M60.5663 98.365C60.2535 98.0522 60.0781 97.6304 60.0781 97.1848V85.0369C60.0781 84.3212 60.5331 83.6861 61.2109 83.4586C66.3298 81.7286 70.8657 78.9037 74.7049 75.0646C78.5441 71.2254 81.3642 66.6895 83.0989 61.5706C83.3264 60.8928 83.9616 60.4378 84.6773 60.4378H96.8252C97.3371 60.4378 97.8205 60.6748 98.1381 61.0777C98.4556 61.4805 98.5647 62.0114 98.4414 62.5043C96.2469 71.2538 91.7063 79.2592 85.3076 85.6626C78.909 92.0659 70.8989 96.6066 62.1494 98.7963C61.6517 98.9196 61.1256 98.8058 60.7227 98.493C60.6706 98.4456 60.6185 98.403 60.5711 98.3556L60.5663 98.365ZM63.4102 86.2124V94.9998C70.7662 92.7911 77.4871 88.7766 82.952 83.3117C88.4169 77.8468 92.4267 71.1259 94.6402 63.7698H85.8527C83.9331 68.9171 80.9803 73.5004 77.0605 77.4202C73.1455 81.3352 68.5575 84.2928 63.4102 86.2124Z" fill="white"/>
<path id="Vector_5" d="M1.91913 39.7253C1.87173 39.6779 1.82435 39.6257 1.78643 39.5736C1.46887 39.1707 1.35985 38.6399 1.48309 38.1422C3.67284 29.3927 8.2135 21.3825 14.6169 14.9839C21.0202 8.58531 29.0256 4.03992 37.7751 1.85017C38.2728 1.72694 38.7989 1.84069 39.2017 2.15351C39.6046 2.47107 39.8417 2.95453 39.8417 3.46642V15.6143C39.8417 16.33 39.3866 16.9651 38.7089 17.1926C33.59 18.9226 29.054 21.7475 25.2148 25.5867C21.3804 29.4211 18.5555 33.9618 16.8208 39.0807C16.5933 39.7584 15.9582 40.2135 15.2425 40.2135H3.0946C2.64907 40.2135 2.22247 40.0381 1.91439 39.73L1.91913 39.7253ZM36.5096 5.65617C29.1536 7.86487 22.4326 11.8794 16.9677 17.3443C11.5028 22.8092 7.49305 29.5301 5.27961 36.8862H14.067C15.9866 31.7388 18.9395 27.1555 22.8592 23.2358C26.7742 19.3208 31.3623 16.3679 36.5096 14.4436V5.65617Z" fill="white"/>
</g>
<path id="Vector_6" d="M77.0566 23.2308C62.1171 8.29123 37.8023 8.28649 22.8627 23.2308C7.91839 38.1752 7.92313 62.4852 22.8627 77.4248C37.8023 92.3644 62.1123 92.3691 77.0566 77.4248C92.001 62.4804 91.9962 38.1704 77.0566 23.2308Z" fill="white"/>
<g id="Group_2">
<path id="Vector_7" d="M63.7836 64.0054L36.2559 64.188C35.0963 64.1957 34.1625 65.142 34.1702 66.3016L34.1767 67.2827C34.1844 68.4423 35.1307 69.3761 36.2903 69.3684L63.8179 69.1858C64.9775 69.1781 65.9114 68.2318 65.9037 67.0722L65.8972 66.0911C65.8895 64.9315 64.9432 63.9977 63.7836 64.0054Z" fill="#110A1D"/>
<path id="Vector_8" d="M40.0062 47.3892C39.7076 47.3892 39.4043 47.3229 39.1294 47.1902L36.9823 46.1522C36.0486 45.6972 35.622 44.5928 36.0106 43.6306L36.9965 41.1755C37.2999 40.4266 38.0156 39.9384 38.8213 39.9337C39.1673 39.9337 39.5086 40.019 39.8119 40.1943L42.3714 41.6542C42.8501 41.9243 43.1961 42.3936 43.3193 42.9339C43.4425 43.4742 43.3335 44.043 43.0207 44.498L41.6178 46.5313C41.2528 47.0622 40.6461 47.3845 40.0015 47.3845L40.0062 47.3892Z" fill="#110A1D"/>
<path id="Vector_9" d="M59.8211 47.2565C59.1765 47.2565 58.5651 46.9484 58.1954 46.4223L56.8066 44.4648C56.4843 44.0145 56.3706 43.4458 56.4844 42.9054C56.5981 42.3651 56.9394 41.8911 57.4181 41.6115L60.0581 40.0616C60.3567 39.8862 60.698 39.7915 61.044 39.7867C61.8497 39.782 62.5749 40.2607 62.8877 41.0048L63.8831 43.3889C64.2812 44.3463 63.8689 45.4602 62.9446 45.9246L60.698 47.048C60.4278 47.1807 60.1244 47.2565 59.8258 47.2565H59.8211Z" fill="#110A1D"/>
<path id="Vector_10" d="M37.8437 62.3477C36.635 62.3572 35.5497 61.5989 35.1373 60.4613L30.5445 47.8205C30.2507 47.9627 29.9378 48.0717 29.6203 48.1523C29.2458 48.2471 28.8666 48.2945 28.4827 48.2945C28.26 48.2945 28.0419 48.285 27.8286 48.2566C25.4351 47.9532 23.6198 45.9009 23.6056 43.4837C23.5866 40.8105 25.7479 38.6207 28.4211 38.6018C31.0943 38.5828 33.2841 40.7441 33.2983 43.4173C33.2983 44.0335 33.194 44.6259 32.976 45.1805C32.8575 45.4838 32.7106 45.7729 32.54 46.0478L41.2752 50.2757L47.9583 40.5924C47.6786 40.4739 47.4084 40.327 47.1525 40.1516C46.669 39.8246 46.2472 39.417 45.9059 38.9383C45.3277 38.123 45.0149 37.1609 45.0101 36.1655C44.9912 33.4923 47.1525 31.3026 49.8257 31.2836C49.9442 31.2836 50.0674 31.2836 50.1859 31.2931C52.5795 31.4543 54.5133 33.3738 54.6886 35.7674C54.7692 36.9002 54.4706 37.9856 53.826 38.9098C53.4848 39.3933 53.0676 39.8056 52.5889 40.1327C52.3377 40.308 52.0676 40.455 51.7879 40.5735L58.5894 50.1572L67.1825 45.8583C67.0214 45.5502 66.8934 45.2279 66.7987 44.8914C66.6849 44.4837 66.6233 44.0572 66.6233 43.6258C66.6233 43.4315 66.6327 43.2372 66.6517 43.0476C66.9266 40.6114 68.9836 38.7629 71.4341 38.7487C74.1073 38.7297 76.297 40.891 76.3112 43.5642C76.3302 46.1142 74.349 48.2566 71.8038 48.4319L71.5004 48.4414C71.0075 48.4414 70.5241 48.375 70.0548 48.2329C69.7515 48.1381 69.4576 48.0196 69.1827 47.8679L64.8696 60.2623C64.4762 61.4045 63.3955 62.1724 62.1869 62.1819L37.8437 62.343V62.3477Z" fill="#110A1D"/>
</g>
</g>
</svg>
