<svg width="100" height="100" viewBox="0 0 100 100" fill="none" xmlns="http://www.w3.org/2000/svg">
<g id="M">
<path id="Vector" d="M49.5451 99.3436C22.2225 99.3436 0 77.1107 0 49.7985C0 22.4862 22.2329 0.253357 49.5451 0.253357C76.8574 0.253357 99.0902 22.4862 99.0902 49.7985C99.0902 77.1107 76.8574 99.3436 49.5451 99.3436ZM49.5451 3.55288C24.044 3.55288 3.29958 24.2973 3.29958 49.7985C3.29958 75.2996 24.044 96.044 49.5451 96.044C75.0463 96.044 95.7907 75.2996 95.7907 49.7985C95.7907 24.2973 75.0463 3.55288 49.5451 3.55288Z" fill="white"/>
<g id="Group">
<path id="Vector_2" d="M81.8735 14.4443L66.5352 29.7826L69.5528 32.8002L84.8911 17.4619L81.8735 14.4443Z" fill="white"/>
<path id="Vector_3" d="M29.0765 67.2431L13.7383 82.5814L16.7559 85.5989L32.0941 70.2607L29.0765 67.2431Z" fill="white"/>
<path id="Vector_4" d="M70.0176 67.2403L67 70.2579L82.3383 85.5961L85.3558 82.5786L70.0176 67.2403Z" fill="white"/>
<path id="Vector_5" d="M16.7676 13.9793L13.75 16.9969L29.0809 32.3278L32.0985 29.3102L16.7676 13.9793Z" fill="white"/>
</g>
<g id="Group_2">
<path id="Vector_6" d="M61.641 51.1308C62.6402 50.1316 62.6402 48.5182 61.641 47.5294L59.5176 45.4164C58.5183 44.4172 56.905 44.4172 55.9162 45.4164L54.7712 46.5614L53.4494 45.2395C52.4501 44.2403 50.8368 44.2403 49.848 45.2395L48.703 46.3948L47.3811 45.0625C46.3819 44.0633 44.7685 44.0633 43.7797 45.0625L36.7539 52.0884C36.7018 52.1404 36.7018 52.2237 36.7539 52.2861C37.6907 53.2229 39.2208 53.2229 40.1679 52.2861L44.6957 47.7584C45.1849 47.2692 45.9759 47.2692 46.4652 47.7584L46.7982 48.0914C46.8607 48.1539 46.8607 48.2476 46.7982 48.31L43.0199 52.0884C42.9679 52.1404 42.9679 52.2237 43.0199 52.2861C43.9567 53.2229 45.4867 53.2229 46.4339 52.2861L50.7743 47.9457C51.2635 47.4565 52.0546 47.4565 52.5438 47.9457L52.8768 48.2788C52.9289 48.3308 52.9289 48.4141 52.8768 48.4766L49.2338 52.1196C49.1818 52.1716 49.1818 52.2549 49.2338 52.3174C50.1706 53.2541 51.7007 53.2541 52.6479 52.3174L56.8425 48.1227C57.3317 47.6335 58.1228 47.6335 58.612 48.1227L59.3302 48.8409C59.6112 49.1219 59.6112 49.5903 59.3302 49.8713L59.2157 49.9858C58.9347 50.2669 58.4663 50.2669 58.1853 49.9858L57.2589 49.0594C57.2069 49.0074 57.1236 49.0074 57.0611 49.0594L55.4582 50.6624C55.4062 50.7144 55.4062 50.7977 55.4582 50.8601L56.905 52.3069C57.9043 53.3062 59.5176 53.3062 60.5064 52.3069L61.6514 51.162L61.641 51.1308Z" fill="white"/>
<path id="Vector_7" d="M49.5462 11.7965C28.5624 11.7965 11.5547 28.8042 11.5547 49.788C11.5547 70.7718 28.5624 87.7795 49.5462 87.7795C70.53 87.7795 87.5377 70.7718 87.5377 49.788C87.5377 28.8042 70.53 11.7965 49.5462 11.7965ZM51.0971 23.527C57.1965 23.8809 62.7339 26.3165 67.0223 30.1261L61.5369 35.6115C58.6745 33.1863 55.0628 31.6146 51.0971 31.2815V23.527ZM48.0057 23.527V31.2815C44.04 31.6041 40.4282 33.1863 37.5659 35.6115L32.0805 30.1261C36.3688 26.3165 41.9062 23.8809 48.0057 23.527ZM29.8947 32.3119L35.38 37.7973C32.9548 40.6597 31.3831 44.2715 31.05 48.2372H23.2956C23.6495 42.1377 26.0851 36.6003 29.8947 32.3119ZM23.2956 51.3285H31.05C31.3727 55.2942 32.9548 58.906 35.38 61.7684L29.8947 67.2537C26.0851 62.9654 23.6495 57.428 23.2956 51.3285ZM48.0057 76.0386C41.9062 75.6847 36.3688 73.2491 32.0805 69.4395L37.5659 63.9542C40.4282 66.3794 44.04 67.9511 48.0057 68.2842V76.0386ZM33.5793 49.7776C33.5793 40.9615 40.7301 33.8108 49.5462 33.8108C58.3623 33.8108 65.513 40.9615 65.513 49.7776C65.513 58.5937 58.3623 65.7444 49.5462 65.7444C40.7301 65.7444 33.5793 58.5937 33.5793 49.7776ZM51.0971 76.0386V68.2842C55.0628 67.9615 58.6745 66.3794 61.5369 63.9542L67.0223 69.4395C62.7339 73.2491 57.1965 75.6847 51.0971 76.0386ZM69.2081 67.2537L63.7228 61.7684C66.148 58.906 67.7197 55.2942 68.0527 51.3285H75.8072C75.4533 57.428 73.0176 62.9654 69.2081 67.2537ZM68.0527 48.2372C67.7301 44.2715 66.148 40.6597 63.7228 37.7973L69.2081 32.3119C73.0176 36.6003 75.4533 42.1377 75.8072 48.2372H68.0527Z" fill="white"/>
</g>
</g>
</svg>
