<svg width="100" height="100" viewBox="0 0 100 100" fill="none" xmlns="http://www.w3.org/2000/svg">
<g id="Timer">
<path id="Vector" d="M49.5529 99.6273C36.8544 99.6273 24.1663 94.7977 14.4966 85.1281C-4.83221 65.7992 -4.83221 34.3548 14.4966 15.0259C23.8644 5.65815 36.3131 0.505859 49.5529 0.505859C62.7927 0.505859 75.2414 5.65815 84.6092 15.0259C103.938 34.3548 103.938 65.7992 84.6092 85.1281C74.95 94.7873 62.2514 99.6273 49.5529 99.6273ZM17.0988 82.5259C34.9912 100.418 64.1042 100.418 81.9966 82.5259C99.8891 64.6335 99.8891 35.5205 81.9966 17.6281C73.3262 8.95768 61.8039 4.19049 49.5425 4.19049C37.2811 4.19049 25.7588 8.96809 17.0884 17.6281C-0.804078 35.5205 -0.804078 64.6335 17.0884 82.5259H17.0988Z" fill="#7DDACF"/>
<g id="Group">
<path id="Vector_2" d="M51.3875 39.6424L42.207 52.5075H47.7132V61.6879L56.8936 48.8332H51.3875V39.6424Z" fill="#7DDACF"/>
<path id="Vector_3" d="M49.5432 32.4916C39.4885 32.4916 31.3281 40.652 31.3281 50.7067C31.3281 60.7614 39.4885 68.901 49.5432 68.901C59.598 68.901 67.7584 60.7406 67.7584 50.7067C67.7584 40.6728 59.598 32.4916 49.5432 32.4916ZM49.5432 66.6527C40.7167 66.6527 33.5556 59.4916 33.5556 50.6651C33.5556 41.8386 40.7167 34.6774 49.5432 34.6774C58.3698 34.6774 65.531 41.8386 65.531 50.6651C65.531 59.4916 58.3698 66.6527 49.5432 66.6527Z" fill="#7DDACF"/>
<path id="Vector_4" d="M77.7002 21.9269C70.1852 14.4014 60.1824 10.2692 49.5448 10.2692C38.9072 10.2692 28.9149 14.4118 21.3895 21.9269C5.87018 37.4461 5.87018 62.7079 21.3895 78.2376C29.1543 86.0024 39.3443 89.8848 49.5448 89.8848C59.7453 89.8848 69.9354 86.0024 77.7002 78.2376C93.2195 62.7183 93.2195 37.4566 77.7002 21.9269ZM49.5448 75.4169C35.9303 75.4169 24.8451 64.3316 24.8451 50.7171C24.8451 44.7009 26.9997 39.1844 30.5803 34.8752L27.5618 31.8567C26.6979 30.9928 26.6979 29.5876 27.5618 28.7133C28.4257 27.839 29.8309 27.8494 30.7052 28.7133L33.7237 31.7318C37.4708 28.5988 42.1859 26.5379 47.3278 26.1007V24.0606H45.2877C43.487 24.0606 41.9985 22.5722 41.9985 20.7715V19.0541C41.9985 17.2326 43.487 15.765 45.2877 15.765H53.8228C55.6235 15.765 57.1119 17.2326 57.1119 19.0541V20.7715C57.1119 22.5722 55.6235 24.0606 53.8228 24.0606H51.7827V26.1007C56.935 26.5483 61.6397 28.6092 65.3868 31.7318L68.4052 28.7133C69.2692 27.8494 70.6743 27.8494 71.5487 28.7133C72.4126 29.5772 72.4126 30.9824 71.5487 31.8567L68.5301 34.8752C72.1107 39.1844 74.2653 44.6905 74.2653 50.7171C74.2653 64.3316 63.1801 75.4169 49.5656 75.4169H49.5448Z" fill="#7DDACF"/>
</g>
</g>
</svg>
